<?xml version="1.0" encoding="UTF-8"?>
<svg xmlns="http://www.w3.org/2000/svg" xmlns:xlink="http://www.w3.org/1999/xlink" width="30px" height="26px" viewBox="0 0 30 26" version="1.1">
<g id="surface1">
<path style="fill:none;stroke-width:5;stroke-linecap:butt;stroke-linejoin:miter;stroke:rgb(94.509804%,74.901962%,20%);stroke-opacity:1;stroke-miterlimit:4;" d="M 93.294271 2.507812 L 31.103516 2.507812 " transform="matrix(0.24,0,0,0.242991,0,0)"/>
<path style="fill:none;stroke-width:5;stroke-linecap:butt;stroke-linejoin:miter;stroke:rgb(94.509804%,74.901962%,20%);stroke-opacity:1;stroke-miterlimit:4;" d="M 0.0030171 -2.497804 L 61.478999 -2.510785 " transform="matrix(-0.121446,-0.209584,0.208664,-0.120049,29.8536,12.888273)"/>
<path style="fill:none;stroke-width:5;stroke-linecap:butt;stroke-linejoin:miter;stroke:rgb(94.509804%,74.901962%,20%);stroke-opacity:1;stroke-miterlimit:4;" d="M 0.000497166 -2.491387 L 61.446417 -2.49835 " transform="matrix(0.121446,-0.209584,0.208664,0.120049,22.390897,25.767943)"/>
<path style="fill:none;stroke-width:5;stroke-linecap:butt;stroke-linejoin:miter;stroke:rgb(94.509804%,74.901962%,20%);stroke-opacity:1;stroke-miterlimit:4;" d="M 31.103516 103.575871 L 93.294271 103.575871 " transform="matrix(0.24,0,0,0.242991,0,0)"/>
<path style="fill:none;stroke-width:5;stroke-linecap:butt;stroke-linejoin:miter;stroke:rgb(94.509804%,74.901962%,20%);stroke-opacity:1;stroke-miterlimit:4;" d="M 0.00466239 -2.494646 L 61.44472 -2.507625 " transform="matrix(0.121454,0.209579,-0.208675,0.120029,0.0022998,12.888297)"/>
<path style="fill:none;stroke-width:5;stroke-linecap:butt;stroke-linejoin:miter;stroke:rgb(94.509804%,74.901962%,20%);stroke-opacity:1;stroke-miterlimit:4;" d="M -0.0000600652 -2.500245 L 61.44586 -2.507208 " transform="matrix(-0.121446,0.209584,-0.208664,-0.120049,7.462656,0.00845365)"/>
<path style="fill:none;stroke-width:5;stroke-linecap:butt;stroke-linejoin:miter;stroke:rgb(94.509804%,74.901962%,20%);stroke-opacity:1;stroke-miterlimit:4;" d="M 84.244792 13.407151 L 39.876302 13.407151 " transform="matrix(0.24,0,0,0.242991,0,0)"/>
<path style="fill:none;stroke-width:5;stroke-linecap:butt;stroke-linejoin:miter;stroke:rgb(94.509804%,74.901962%,20%);stroke-opacity:1;stroke-miterlimit:4;" d="M 0.00178706 -2.497268 L 21.920635 -2.490798 " transform="matrix(-0.12,-0.210436,0.209501,-0.118545,22.863239,7.255118)"/>
</g>
</svg>
