<?xml version="1.0" encoding="UTF-8"?>
<svg xmlns="http://www.w3.org/2000/svg" xmlns:xlink="http://www.w3.org/1999/xlink" width="31px" height="30px" viewBox="0 0 30 30" version="1.1">
<g id="surface1">
<path style="fill:none;stroke-width:5;stroke-linecap:butt;stroke-linejoin:miter;stroke:rgb(94.509804%,74.901962%,20%);stroke-opacity:1;stroke-miterlimit:4;" d="M 93.283854 1.489583 L 31.104427 1.489583 " transform="matrix(0.132743,0,0,0.136364,0,0)"/>
<path style="fill:none;stroke-width:5;stroke-linecap:butt;stroke-linejoin:miter;stroke:rgb(94.509804%,74.901962%,20%);stroke-opacity:1;stroke-miterlimit:4;" d="M 0.00756618 -1.486808 L 61.49546 -1.50903 " transform="matrix(-0.0671717,-0.117616,0.115412,-0.0673703,16.511947,7.232754)"/>
<path style="fill:none;stroke-width:5;stroke-linecap:butt;stroke-linejoin:miter;stroke:rgb(94.509804%,74.901962%,20%);stroke-opacity:1;stroke-miterlimit:4;" d="M 0.000519466 -1.50282 L 61.448966 -1.491485 " transform="matrix(0.0671717,-0.117616,0.115412,0.0673703,12.384345,14.460682)"/>
<path style="fill:none;stroke-width:5;stroke-linecap:butt;stroke-linejoin:miter;stroke:rgb(94.509804%,74.901962%,20%);stroke-opacity:1;stroke-miterlimit:4;" d="M 31.104427 104.585938 L 93.283854 104.585938 " transform="matrix(0.132743,0,0,0.136364,0,0)"/>
<path style="fill:none;stroke-width:5;stroke-linecap:butt;stroke-linejoin:miter;stroke:rgb(94.509804%,74.901962%,20%);stroke-opacity:1;stroke-miterlimit:4;" d="M 0.0120588 -1.504977 L 61.446042 -1.488695 " transform="matrix(0.0671758,0.117613,-0.115418,0.067359,0.00126999,7.232768)"/>
<path style="fill:none;stroke-width:5;stroke-linecap:butt;stroke-linejoin:miter;stroke:rgb(94.509804%,74.901962%,20%);stroke-opacity:1;stroke-miterlimit:4;" d="M -0.00238616 -1.499379 L 61.44606 -1.488044 " transform="matrix(-0.0671717,0.117616,-0.115412,-0.0673703,4.127575,0.00473577)"/>
<path style="fill:none;stroke-width:5;stroke-linecap:butt;stroke-linejoin:miter;stroke:rgb(94.509804%,74.901962%,20%);stroke-opacity:1;stroke-miterlimit:4;" d="M 84.24974 12.403646 L 39.873698 12.403646 " transform="matrix(0.132743,0,0,0.136364,0,0)"/>
<path style="fill:none;stroke-width:5;stroke-linecap:butt;stroke-linejoin:miter;stroke:rgb(94.509804%,74.901962%,20%);stroke-opacity:1;stroke-miterlimit:4;" d="M -0.00709603 -1.496545 L 21.928645 -1.506204 " transform="matrix(-0.0663717,-0.118094,0.115875,-0.0665264,12.645597,4.071477)"/>
<path style="fill:none;stroke-width:5;stroke-linecap:butt;stroke-linejoin:miter;stroke:rgb(94.509804%,74.901962%,20%);stroke-opacity:1;stroke-miterlimit:4;" d="M 194.01276 57.635417 L 131.833333 57.635417 " transform="matrix(0.132743,0,0,0.136364,0,0)"/>
<path style="fill:none;stroke-width:5;stroke-linecap:butt;stroke-linejoin:miter;stroke:rgb(94.509804%,74.901962%,20%);stroke-opacity:1;stroke-miterlimit:4;" d="M -0.0161961 -1.497293 L 61.496606 -1.505018 " transform="matrix(-0.0671717,-0.117616,0.115412,-0.0673703,29.882655,14.889409)"/>
<path style="fill:none;stroke-width:5;stroke-linecap:butt;stroke-linejoin:miter;stroke:rgb(94.509804%,74.901962%,20%);stroke-opacity:1;stroke-miterlimit:4;" d="M 0.00491152 -1.501566 L 61.453358 -1.490231 " transform="matrix(0.0671717,-0.117616,0.115412,0.0673703,25.754999,22.117364)"/>
<path style="fill:none;stroke-width:5;stroke-linecap:butt;stroke-linejoin:miter;stroke:rgb(94.509804%,74.901962%,20%);stroke-opacity:1;stroke-miterlimit:4;" d="M 131.833333 160.731771 L 194.01276 160.731771 " transform="matrix(0.132743,0,0,0.136364,0,0)"/>
<path style="fill:none;stroke-width:5;stroke-linecap:butt;stroke-linejoin:miter;stroke:rgb(94.509804%,74.901962%,20%);stroke-opacity:1;stroke-miterlimit:4;" d="M 0.0107841 -1.508564 L 61.444767 -1.492281 " transform="matrix(0.0671758,0.117613,-0.115418,0.067359,13.372035,14.889409)"/>
<path style="fill:none;stroke-width:5;stroke-linecap:butt;stroke-linejoin:miter;stroke:rgb(94.509804%,74.901962%,20%);stroke-opacity:1;stroke-miterlimit:4;" d="M -0.00674509 -1.500637 L 61.441701 -1.489301 " transform="matrix(-0.0671717,0.117616,-0.115412,-0.0673703,17.498231,7.661414)"/>
<path style="fill:none;stroke-width:5;stroke-linecap:butt;stroke-linejoin:miter;stroke:rgb(94.509804%,74.901962%,20%);stroke-opacity:1;stroke-miterlimit:4;" d="M 184.978646 68.549479 L 140.602604 68.549479 " transform="matrix(0.132743,0,0,0.136364,0,0)"/>
<path style="fill:none;stroke-width:5;stroke-linecap:butt;stroke-linejoin:miter;stroke:rgb(94.509804%,74.901962%,20%);stroke-opacity:1;stroke-miterlimit:4;" d="M -0.00550095 -1.492886 L 21.93024 -1.502544 " transform="matrix(-0.0663717,-0.118094,0.115875,-0.0665264,26.016372,11.728159)"/>
<path style="fill:none;stroke-width:5;stroke-linecap:butt;stroke-linejoin:miter;stroke:rgb(94.509804%,74.901962%,20%);stroke-opacity:1;stroke-miterlimit:4;" d="M 93.283854 115.328125 L 31.104427 115.328125 " transform="matrix(0.132743,0,0,0.136364,0,0)"/>
<path style="fill:none;stroke-width:5;stroke-linecap:butt;stroke-linejoin:miter;stroke:rgb(94.509804%,74.901962%,20%);stroke-opacity:1;stroke-miterlimit:4;" d="M -0.00351463 -1.493257 L 61.48438 -1.515479 " transform="matrix(-0.0671717,-0.117616,0.115412,-0.0673703,16.511947,22.754454)"/>
<path style="fill:none;stroke-width:5;stroke-linecap:butt;stroke-linejoin:miter;stroke:rgb(94.509804%,74.901962%,20%);stroke-opacity:1;stroke-miterlimit:4;" d="M -0.0103822 -1.496475 L 61.462972 -1.499637 " transform="matrix(0.0671717,-0.117616,0.115412,0.0673703,12.384345,29.982409)"/>
<path style="fill:none;stroke-width:5;stroke-linecap:butt;stroke-linejoin:miter;stroke:rgb(94.509804%,74.901962%,20%);stroke-opacity:1;stroke-miterlimit:4;" d="M 31.104427 218.395833 L 93.283854 218.395833 " transform="matrix(0.132743,0,0,0.136364,0,0)"/>
<path style="fill:none;stroke-width:5;stroke-linecap:butt;stroke-linejoin:miter;stroke:rgb(94.509804%,74.901962%,20%);stroke-opacity:1;stroke-miterlimit:4;" d="M -0.00168294 -1.512975 L 61.4323 -1.496693 " transform="matrix(0.0671758,0.117613,-0.115418,0.067359,0.00126999,22.754454)"/>
<path style="fill:none;stroke-width:5;stroke-linecap:butt;stroke-linejoin:miter;stroke:rgb(94.509804%,74.901962%,20%);stroke-opacity:1;stroke-miterlimit:4;" d="M 0.00828334 -1.505589 L 61.45673 -1.494253 " transform="matrix(-0.0671717,0.117616,-0.115412,-0.0673703,4.127575,15.5265)"/>
<path style="fill:none;stroke-width:5;stroke-linecap:butt;stroke-linejoin:miter;stroke:rgb(94.509804%,74.901962%,20%);stroke-opacity:1;stroke-miterlimit:4;" d="M 84.24974 126.242188 L 39.873698 126.242188 " transform="matrix(0.132743,0,0,0.136364,0,0)"/>
<path style="fill:none;stroke-width:5;stroke-linecap:butt;stroke-linejoin:miter;stroke:rgb(94.509804%,74.901962%,20%);stroke-opacity:1;stroke-miterlimit:4;" d="M 0.00740447 -1.48824 L 21.918138 -1.512223 " transform="matrix(-0.0663717,-0.118094,0.115875,-0.0665264,12.645597,19.593274)"/>
</g>
</svg>
