<?xml version="1.0" standalone="no"?>
<!DOCTYPE svg PUBLIC "-//W3C//DTD SVG 20010904//EN"
 "http://www.w3.org/TR/2001/REC-SVG-20010904/DTD/svg10.dtd">
<svg version="1.0" xmlns="http://www.w3.org/2000/svg"
 width="50px" height="50px" viewBox="0 0 50.000000 50.000000"
 preserveAspectRatio="xMidYMid meet">

<g transform="translate(0.000000,50.000000) scale(0.100000,-0.100000)"
fill="#000000" stroke="none">
<path d="M57 443 c-4 -3 -7 -14 -7 -24 0 -11 -9 -19 -22 -21 -23 -3 -23 -5
-26 -176 l-2 -173 47 8 c27 4 72 7 101 6 28 -1 75 -1 102 -1 28 0 74 0 103 1
28 1 73 -2 100 -6 l47 -8 -2 173 c-3 169 -3 173 -25 176 -14 2 -23 11 -25 25
-6 41 -115 35 -168 -10 l-31 -26 -22 21 c-12 11 -35 25 -50 31 -31 12 -110 15
-120 4z m123 -45 l45 -23 3 -128 3 -128 -30 15 c-16 9 -47 18 -70 22 l-41 7 0
128 c0 128 0 129 23 129 12 0 43 -10 67 -22z m230 -107 l0 -128 -41 -7 c-23
-4 -54 -13 -70 -22 l-30 -15 3 128 3 128 45 23 c24 12 55 22 67 22 23 0 23 -1
23 -129z m-358 -48 l3 -118 47 -3 c26 -1 57 -6 70 -11 19 -8 14 -10 -28 -10
-28 -1 -66 -4 -83 -7 l-31 -6 0 136 c0 169 18 185 22 19z m418 -19 l0 -136
-31 6 c-17 3 -54 6 -82 6 -68 0 -52 12 25 19 l63 6 3 118 c4 166 22 150 22
-19z"/>
</g>
</svg>
